# xmcd CD database file
#
# Track frame offsets:
#	182
#	21717
#	46017
#
# Disc length: 889 seconds
#
# Revision: 4
# Processed by: cddbd v1.5.2PL0 Copyright (c) Steve Scherf et al.
# Submitted via: CDex 1.94
#
DISCID=1f037703
DTITLE=The Black Crowes - A Conspiracy CDEp
DYEAR=1994
DGENRE=Rock
TTITLE0=A Conspiracy
TTITLE1=Remedy
TTITLE2=Jealous Again
EXTD=YEAR: 1994
EXTT0=
EXTT1=
EXTT2=
PLAYORDER=
